<?xml version="1.0" ?><!DOCTYPE svg  PUBLIC '-//W3C//DTD SVG 1.1//EN'  'http://www.w3.org/Graphics/SVG/1.1/DTD/svg11.dtd'><svg enable-background="new 0 0 421.104 433" height="433px" id="Layer_1" version="1.1" viewBox="0 0 421.104 433" width="421.104px" xml:space="preserve" xmlns="http://www.w3.org/2000/svg" xmlns:xlink="http://www.w3.org/1999/xlink"><g><g id="Layer_5_45_"><path d="M340.836,430.975l53.905-68.875c2.591-2.699,1.447-4.91-2.54-4.91H369.65    c-3.986,0-7.249-2.905-7.249-6.455l-0.072-42.642v-33.2h-0.058c-0.021-3.534-3.271-6.42-7.245-6.422l-38.05,0.002    c-3.985,0-7.051,2.903-7.051,6.453l0.038,75.832c-0.015,3.539-3.375,6.433-7.354,6.433h-22.552c-3.987,0-5.132,2.21-2.544,4.909    l53.909,68.875C334.013,433.676,338.246,433.676,340.836,430.975z" fill="#535353"/></g><path d="M246.443,411.601H129.633c-29.085,0-52.748-23.663-52.748-52.748V162.373h29.099v196.479   c0,13.04,10.609,23.649,23.649,23.649h116.811c4.963,0,9,4.037,9,9v11.099C255.443,407.563,251.406,411.601,246.443,411.601z" fill="#535353"/><path d="M412.104,336.17h-11.1c-4.963,0-9-4.037-9-9V121.424h-68.058c-13.288,0-24.099-10.811-24.099-24.1V29.1   H129.633c-13.04,0-23.649,10.608-23.649,23.648v14.58H76.885v-14.58C76.885,23.662,100.547,0,129.633,0h176.184   c9.172,0,20.105,4.529,26.59,11.014l77.683,77.682c6.485,6.484,11.015,17.42,11.015,26.591V327.17   C421.104,332.133,417.065,336.17,412.104,336.17z" fill="#535353"/><g><path d="M127.452,86.615c-4.249,0-6.996,0.372-8.618,0.749v55.098c1.622,0.377,4.249,0.377,6.62,0.377    c17.241,0.125,28.486-9.371,28.486-29.485C154.064,95.861,143.819,86.615,127.452,86.615z" fill="#535353"/><path d="M53.867,86.364c-3.877,0-6.503,0.377-7.875,0.749v24.864c1.623,0.376,3.625,0.498,6.369,0.498    c10.124,0,16.367-5.123,16.367-13.742C68.729,90.989,63.359,86.364,53.867,86.364z" fill="#535353"/><path d="M255.734,58.845H9.55C4.275,58.845,0,63.698,0,69.686v90.33c0,5.987,4.275,10.841,9.55,10.841h246.185    c5.273,0,9.549-4.854,9.549-10.841v-90.33C265.283,63.698,261.008,58.845,255.734,58.845z M79.852,118.225    c-6.499,6.122-16.116,8.87-27.361,8.87c-2.501,0-4.75-0.126-6.499-0.377v30.112H27.129V73.744    c5.871-0.999,14.118-1.748,25.734-1.748c11.747,0,20.118,2.25,25.738,6.749c5.369,4.244,8.995,11.245,8.995,19.491    S84.849,113.479,79.852,118.225z M160.191,146.836c-8.874,7.372-22.368,10.868-38.861,10.868c-9.869,0-16.865-0.623-21.611-1.25    v-82.71c6.996-1.12,16.116-1.748,25.734-1.748c15.995,0,26.366,2.873,34.486,8.995c8.744,6.498,14.243,16.869,14.243,31.734    C174.183,128.847,168.308,139.966,160.191,146.836z M238.154,88.237h-32.362v19.24h30.238v15.494h-30.238v33.858h-19.115V72.624    h51.477V88.237z" fill="#535353"/></g></g></svg>